<svg xmlns="http://www.w3.org/2000/svg" xmlns:xlink="http://www.w3.org/1999/xlink" viewBox="0 0 192 192" width="192px" height="192px">
<g id="surface72750082">
<path style=" stroke:none;fill-rule:nonzero;fill:rgb(10.980392%,71.372551%,71.372551%);fill-opacity:1;" d="M 48 20.6875 L 16 52.6875 L 16 140 L 64 176 L 64 107.3125 L 96 139.3125 L 128 107.3125 L 128 176 L 176 140 L 176 52.6875 L 144 20.6875 L 96 68.6875 Z M 48 43.3125 L 88 83.3125 L 88 108.6875 L 35.3125 56 Z M 144 43.3125 L 156.6875 56 L 104 108.6875 L 104 83.3125 Z M 32 75.3125 L 48 91.3125 L 48 144 L 32 132 Z M 160 75.3125 L 160 132 L 144 144 L 144 91.3125 Z M 160 75.3125 "/>
</g>
</svg>